<svg xmlns="http://www.w3.org/2000/svg" viewBox="0 0 1200 630" role="img" aria-label="Canhoes do Ano hero">
  <defs>
    <linearGradient id="bg" x1="0" y1="0" x2="0" y2="1">
      <stop offset="0%" stop-color="#2c3b22"/>
      <stop offset="100%" stop-color="#131b0f"/>
    </linearGradient>
    <linearGradient id="metal" x1="0" y1="0" x2="1" y2="1">
      <stop offset="0%" stop-color="#8d846f"/>
      <stop offset="55%" stop-color="#4e473b"/>
      <stop offset="100%" stop-color="#2d281f"/>
    </linearGradient>
    <linearGradient id="wood" x1="0" y1="0" x2="1" y2="1">
      <stop offset="0%" stop-color="#6d4b2f"/>
      <stop offset="100%" stop-color="#3f2b1c"/>
    </linearGradient>
    <radialGradient id="glow" cx="0.68" cy="0.16" r="0.72">
      <stop offset="0%" stop-color="#f1c96f" stop-opacity="0.36"/>
      <stop offset="100%" stop-color="#f1c96f" stop-opacity="0"/>
    </radialGradient>
  </defs>

  <rect width="1200" height="630" fill="url(#bg)"/>
  <rect width="1200" height="630" fill="url(#glow)"/>

  <rect x="20" y="20" width="1160" height="590" rx="18" fill="none" stroke="#bca06f" stroke-opacity="0.66" stroke-width="3"/>
  <rect x="32" y="32" width="1136" height="566" rx="14" fill="none" stroke="#bca06f" stroke-opacity="0.22" stroke-width="1.5"/>

  <g transform="translate(116 120)">
    <circle cx="170" cy="170" r="150" fill="rgba(18,26,13,0.34)" stroke="#9f8258" stroke-width="6"/>
    <circle cx="170" cy="170" r="129" fill="none" stroke="#6d583b" stroke-opacity="0.5" stroke-width="2"/>

    <g transform="translate(170 186) rotate(-28)">
      <rect x="-88" y="-12" width="176" height="24" rx="12" fill="url(#wood)"/>
      <rect x="-98" y="-16" width="40" height="32" rx="16" fill="url(#metal)"/>
      <rect x="58" y="-16" width="40" height="32" rx="16" fill="url(#metal)"/>
    </g>
    <g transform="translate(170 186) rotate(28)">
      <rect x="-88" y="-12" width="176" height="24" rx="12" fill="url(#wood)"/>
      <rect x="-98" y="-16" width="40" height="32" rx="16" fill="url(#metal)"/>
      <rect x="58" y="-16" width="40" height="32" rx="16" fill="url(#metal)"/>
    </g>

    <g transform="translate(170 134)">
      <rect x="-34" y="-8" width="68" height="16" rx="8" fill="#4f3a26"/>
      <g fill="#98a870" stroke="#7d8f5b" stroke-width="1.7">
        <path d="M-28 -26L-7 -24L-4 2L-27 2Z"/>
        <path d="M-7 -29L14 -27L17 2L-6 2Z"/>
        <path d="M-18 -31L3 -29L6 -5L-17 -5Z"/>
      </g>
      <path d="M-24 -26C-21 -29 -20 -32 -20 -35" stroke="#c7ba98" stroke-width="2" stroke-linecap="round"/>
      <path d="M-2 -29C1 -32 2 -35 2 -38" stroke="#c7ba98" stroke-width="2" stroke-linecap="round"/>
      <path d="M-13 -31C-10 -34 -9 -37 -9 -40" stroke="#c7ba98" stroke-width="2" stroke-linecap="round"/>
    </g>

    <path d="M71 246C98 277 127 294 159 301" stroke="#8b7350" stroke-width="7" stroke-linecap="round"/>
    <path d="M269 246C242 277 213 294 181 301" stroke="#8b7350" stroke-width="7" stroke-linecap="round"/>
  </g>

  <text x="520" y="228" fill="#f0ddba" font-family="Fraunces, serif" font-size="96" font-weight="700">CANHOES DO ANO</text>
  <text x="520" y="286" fill="#ccb186" font-family="JetBrains Mono, monospace" font-size="27" letter-spacing="3">PREMIANDO OS MELHORES DA COMUNIDADE</text>
  <line x1="520" y1="308" x2="1088" y2="308" stroke="#ccb186" stroke-opacity="0.52" stroke-width="2"/>

  <text x="520" y="374" fill="#e4cfaa" font-family="DM Sans, sans-serif" font-size="35" font-weight="600">Identidade cerimonial, comunitaria e memoravel</text>
  <text x="520" y="420" fill="#baa17d" font-family="DM Sans, sans-serif" font-size="28">Emblema unico para app icon, logo, hero e superficies de marca.</text>
</svg>
