<svg xmlns="http://www.w3.org/2000/svg" viewBox="0 0 1200 630" role="img" aria-label="Canhoes do Ano hero">
  <defs>
    <linearGradient id="bg" x1="0" y1="0" x2="0" y2="1">
      <stop offset="0%" stop-color="#2c3b22"/>
      <stop offset="100%" stop-color="#131b0f"/>
    </linearGradient>
    <linearGradient id="paper" x1="0" y1="0" x2="1" y2="0">
      <stop offset="0%" stop-color="#f0ddba"/>
      <stop offset="65%" stop-color="#dcc49e"/>
      <stop offset="100%" stop-color="#c2a277"/>
    </linearGradient>
    <linearGradient id="ember" x1="0" y1="0" x2="1" y2="0">
      <stop offset="0%" stop-color="#ffb25e"/>
      <stop offset="60%" stop-color="#ff6c2f"/>
      <stop offset="100%" stop-color="#7f2315"/>
    </linearGradient>
    <radialGradient id="glow" cx="0.68" cy="0.16" r="0.72">
      <stop offset="0%" stop-color="#f1c96f" stop-opacity="0.36"/>
      <stop offset="100%" stop-color="#f1c96f" stop-opacity="0"/>
    </radialGradient>
  </defs>

  <rect width="1200" height="630" fill="url(#bg)"/>
  <rect width="1200" height="630" fill="url(#glow)"/>

  <rect x="20" y="20" width="1160" height="590" rx="18" fill="none" stroke="#bca06f" stroke-opacity="0.66" stroke-width="3"/>
  <rect x="32" y="32" width="1136" height="566" rx="14" fill="none" stroke="#bca06f" stroke-opacity="0.22" stroke-width="1.5"/>

  <g transform="translate(116 120)">
    <circle cx="170" cy="170" r="150" fill="rgba(18,26,13,0.34)" stroke="#9f8258" stroke-width="6"/>
    <circle cx="170" cy="170" r="129" fill="none" stroke="#6d583b" stroke-opacity="0.5" stroke-width="2"/>

    <g transform="translate(170 178) rotate(-18)">
      <ellipse cx="-96" cy="18" rx="96" ry="16" fill="rgba(0,0,0,0.2)"/>
      <path d="M-112 -16L85 -4Q103 -3 108 10Q112 22 98 29L-98 48Q-115 49 -122 36Q-128 22 -112 -16Z" fill="url(#paper)" stroke="#9d7f58" stroke-width="2.2"/>

      <path d="M-115 -14Q-127 7 -115 34" fill="none" stroke="#8e724f" stroke-width="2.1"/>
      <path d="M-92 -10Q-103 9 -92 31" fill="none" stroke="#b79b74" stroke-width="1.8" opacity="0.62"/>

      <rect x="-130" y="-18" width="23" height="67" rx="11" fill="url(#ember)" stroke="#5d1f15" stroke-width="1.8"/>
      <circle cx="-118" cy="15" r="18" fill="rgba(255,130,63,0.34)"/>

      <path d="M104 7Q119 16 119 25Q119 33 106 39L95 41Q104 30 102 20Q102 11 95 5Z" fill="#d9dbe0" stroke="#9299a2" stroke-width="1.8"/>
      <path d="M95 5Q103 13 103 22Q104 32 96 42" fill="none" stroke="#757f8a" stroke-width="1.6"/>

      <path d="M-126 -18C-136 -43 -127 -58 -114 -73" fill="none" stroke="#ece6da" stroke-width="4" stroke-linecap="round" opacity="0.74"/>
      <path d="M-107 -24C-91 -50 -90 -72 -102 -88" fill="none" stroke="#f8f3e9" stroke-width="3.1" stroke-linecap="round" opacity="0.58"/>
      <path d="M-83 -14C-64 -32 -58 -55 -68 -74" fill="none" stroke="#fffaf0" stroke-width="2.2" stroke-linecap="round" opacity="0.46"/>
    </g>
  </g>

  <text x="520" y="228" fill="#f0ddba" font-family="Fraunces, serif" font-size="96" font-weight="700">CANHOES DO ANO</text>
  <text x="520" y="286" fill="#ccb186" font-family="JetBrains Mono, monospace" font-size="27" letter-spacing="3">PREMIANDO OS MELHORES DA COMUNIDADE</text>
  <line x1="520" y1="308" x2="1088" y2="308" stroke="#ccb186" stroke-opacity="0.52" stroke-width="2"/>

  <text x="520" y="374" fill="#e4cfaa" font-family="DM Sans, sans-serif" font-size="35" font-weight="600">Identidade cerimonial, comunitaria e memoravel</text>
  <text x="520" y="420" fill="#baa17d" font-family="DM Sans, sans-serif" font-size="28">Emblema unico para app icon, logo, hero e superficies de marca.</text>
</svg>
