<svg xmlns="http://www.w3.org/2000/svg" viewBox="0 0 256 256" role="img" aria-label="Canhoes do Ano app icon">
  <defs>
    <linearGradient id="bg" x1="0" y1="0" x2="1" y2="1">
      <stop offset="0%" stop-color="#39502a"/>
      <stop offset="100%" stop-color="#1a2512"/>
    </linearGradient>
    <linearGradient id="paper" x1="0" y1="0" x2="1" y2="0">
      <stop offset="0%" stop-color="#f0ddba"/>
      <stop offset="65%" stop-color="#dcc49e"/>
      <stop offset="100%" stop-color="#c2a277"/>
    </linearGradient>
    <linearGradient id="ember" x1="0" y1="0" x2="1" y2="0">
      <stop offset="0%" stop-color="#ffb25e"/>
      <stop offset="60%" stop-color="#ff6c2f"/>
      <stop offset="100%" stop-color="#7f2315"/>
    </linearGradient>
    <radialGradient id="glow" cx="0.22" cy="0.46" r="0.8">
      <stop offset="0%" stop-color="#ffb867" stop-opacity="0.35"/>
      <stop offset="100%" stop-color="#ffb867" stop-opacity="0"/>
    </radialGradient>
  </defs>

  <rect x="8" y="8" width="240" height="240" rx="56" fill="url(#bg)" stroke="#b79a6c" stroke-opacity="0.75" stroke-width="7"/>
  <rect x="8" y="8" width="240" height="240" rx="56" fill="url(#glow)"/>

  <circle cx="128" cy="126" r="84" fill="none" stroke="#9f8359" stroke-width="6"/>
  <circle cx="128" cy="126" r="73" fill="rgba(16,22,12,0.34)" stroke="#6a563a" stroke-opacity="0.55" stroke-width="2"/>

  <g transform="translate(128 126) rotate(-18)">
    <ellipse cx="-66" cy="13" rx="60" ry="11" fill="rgba(0,0,0,0.2)"/>

    <path d="M-72 -10L54 -2Q66 -1 70 8Q73 16 64 20L-61 32Q-73 33 -78 24Q-82 14 -72 -10Z" fill="url(#paper)" stroke="#9d7f58" stroke-width="1.6"/>

    <path d="M-74 -8Q-83 7 -74 24" fill="none" stroke="#8e724f" stroke-width="1.5"/>
    <path d="M-58 -6Q-66 8 -58 22" fill="none" stroke="#b79b74" stroke-width="1.2" opacity="0.6"/>

    <path d="M68 4Q77 9 77 15Q77 20 70 24L62 25Q67 18 66 12Q66 7 62 3Z" fill="#d9dbe0" stroke="#9299a2" stroke-width="1.2"/>
    <path d="M63 3Q68 8 68 14Q69 20 64 26" fill="none" stroke="#757f8a" stroke-width="1.1"/>

    <rect x="-84" y="-11" width="15" height="43" rx="7" fill="url(#ember)" stroke="#5d1f15" stroke-width="1.3"/>
    <circle cx="-76" cy="10" r="11" fill="rgba(255,130,63,0.35)"/>

    <path d="M-80 -12C-85 -25 -80 -33 -74 -40" fill="none" stroke="#e5dfd3" stroke-width="2.4" stroke-linecap="round" opacity="0.75"/>
    <path d="M-69 -16C-61 -31 -60 -45 -67 -54" fill="none" stroke="#f2eee4" stroke-width="1.9" stroke-linecap="round" opacity="0.6"/>
    <path d="M-57 -9C-48 -19 -45 -30 -50 -40" fill="none" stroke="#fffaf0" stroke-width="1.4" stroke-linecap="round" opacity="0.48"/>
  </g>
</svg>
