<svg xmlns="http://www.w3.org/2000/svg" viewBox="0 0 256 256" role="img" aria-label="Canhoes do Ano app icon">
  <defs>
    <linearGradient id="bg" x1="0" y1="0" x2="1" y2="1">
      <stop offset="0%" stop-color="#3d542e"/>
      <stop offset="100%" stop-color="#202c18"/>
    </linearGradient>
    <linearGradient id="metal" x1="0" y1="0" x2="1" y2="1">
      <stop offset="0%" stop-color="#8d846f"/>
      <stop offset="55%" stop-color="#4e473b"/>
      <stop offset="100%" stop-color="#2d281f"/>
    </linearGradient>
    <linearGradient id="wood" x1="0" y1="0" x2="1" y2="1">
      <stop offset="0%" stop-color="#6d4b2f"/>
      <stop offset="100%" stop-color="#3f2b1c"/>
    </linearGradient>
    <radialGradient id="light" cx="0.5" cy="0.2" r="0.8">
      <stop offset="0%" stop-color="#fff0c2" stop-opacity="0.33"/>
      <stop offset="100%" stop-color="#fff0c2" stop-opacity="0"/>
    </radialGradient>
  </defs>

  <rect x="8" y="8" width="240" height="240" rx="56" fill="url(#bg)" stroke="#b79a6c" stroke-opacity="0.75" stroke-width="7"/>
  <rect x="8" y="8" width="240" height="240" rx="56" fill="url(#light)"/>

  <circle cx="128" cy="120" r="84" fill="none" stroke="#9f8359" stroke-width="6"/>
  <circle cx="128" cy="120" r="73" fill="rgba(16,22,12,0.36)" stroke="#6a563a" stroke-opacity="0.55" stroke-width="2"/>

  <g transform="translate(128 130) rotate(-28)">
    <rect x="-56" y="-8" width="112" height="16" rx="8" fill="url(#wood)"/>
    <rect x="-64" y="-11" width="28" height="22" rx="11" fill="url(#metal)"/>
    <rect x="36" y="-11" width="28" height="22" rx="11" fill="url(#metal)"/>
  </g>

  <g transform="translate(128 130) rotate(28)">
    <rect x="-56" y="-8" width="112" height="16" rx="8" fill="url(#wood)"/>
    <rect x="-64" y="-11" width="28" height="22" rx="11" fill="url(#metal)"/>
    <rect x="36" y="-11" width="28" height="22" rx="11" fill="url(#metal)"/>
  </g>

  <g transform="translate(128 102)">
    <rect x="-22" y="-6" width="44" height="12" rx="6" fill="#4f3a26"/>
    <g fill="#98a870" stroke="#7d8f5b" stroke-width="1.2">
      <path d="M-17 -17L-3 -15L-1 1L-16 1Z"/>
      <path d="M-1 -19L13 -17L15 1L0 1Z"/>
      <path d="M-9 -20L5 -18L7 -2L-8 -2Z"/>
    </g>
    <path d="M-14 -17C-12 -19 -11 -21 -11 -23" stroke="#c7ba98" stroke-width="1.4" stroke-linecap="round"/>
    <path d="M1 -19C3 -21 4 -23 4 -25" stroke="#c7ba98" stroke-width="1.4" stroke-linecap="round"/>
    <path d="M-6 -20C-4 -22 -3 -24 -3 -26" stroke="#c7ba98" stroke-width="1.4" stroke-linecap="round"/>
  </g>

  <path d="M68 169C84 186 102 195 122 198" stroke="#8b7350" stroke-width="5" stroke-linecap="round"/>
  <path d="M188 169C172 186 154 195 134 198" stroke="#8b7350" stroke-width="5" stroke-linecap="round"/>
</svg>
