<svg xmlns="http://www.w3.org/2000/svg" viewBox="0 0 820 220" role="img" aria-label="Canhoes do Ano logo">
  <defs>
    <linearGradient id="plate" x1="0" y1="0" x2="1" y2="1">
      <stop offset="0%" stop-color="#3a4f2d"/>
      <stop offset="100%" stop-color="#24321b"/>
    </linearGradient>
    <linearGradient id="paper" x1="0" y1="0" x2="1" y2="0">
      <stop offset="0%" stop-color="#f0ddba"/>
      <stop offset="65%" stop-color="#dcc49e"/>
      <stop offset="100%" stop-color="#c2a277"/>
    </linearGradient>
    <linearGradient id="ember" x1="0" y1="0" x2="1" y2="0">
      <stop offset="0%" stop-color="#ffb25e"/>
      <stop offset="60%" stop-color="#ff6c2f"/>
      <stop offset="100%" stop-color="#7f2315"/>
    </linearGradient>
  </defs>
  <rect x="6" y="6" width="808" height="208" rx="24" fill="#182112" stroke="#af9162" stroke-opacity="0.6" stroke-width="3"/>
  <rect x="28" y="34" width="152" height="152" rx="32" fill="url(#plate)" stroke="#af9162" stroke-opacity="0.5" stroke-width="2.5"/>

  <circle cx="104" cy="109" r="51" fill="none" stroke="#92774f" stroke-width="2.8"/>

  <g transform="translate(104 110) rotate(-18)">
    <ellipse cx="-35" cy="7" rx="35" ry="6" fill="rgba(0,0,0,0.18)"/>
    <path d="M-42 -6L34 -1Q41 -1 44 4Q46 9 41 12L-35 20Q-43 21 -46 15Q-49 8 -42 -6Z" fill="url(#paper)" stroke="#9d7f58" stroke-width="1"/>
    <rect x="-49" y="-6" width="9" height="27" rx="4.5" fill="url(#ember)" stroke="#5d1f15" stroke-width="0.9"/>
    <path d="M41 3Q47 6 47 11Q47 14 42 17L37 18Q40 13 39 9Q39 5 36 2Z" fill="#d9dbe0" stroke="#9299a2" stroke-width="0.9"/>
    <path d="M-47 -7C-50 -14 -47 -19 -43 -23" fill="none" stroke="#f4efe4" stroke-width="1.5" stroke-linecap="round" opacity="0.78"/>
    <path d="M-40 -10C-34 -18 -34 -24 -38 -29" fill="none" stroke="#fff8ee" stroke-width="1.1" stroke-linecap="round" opacity="0.6"/>
  </g>

  <text x="220" y="106" fill="#e8d6b1" font-family="Fraunces, serif" font-size="63" font-weight="700">CANHOES DO ANO</text>
  <text x="220" y="145" fill="#c4aa83" font-family="JetBrains Mono, monospace" font-size="20" letter-spacing="2">PREMIANDO OS MELHORES DA COMUNIDADE</text>
</svg>
